<svg width="46" height="45" viewBox="0 0 46 45" fill="none" xmlns="http://www.w3.org/2000/svg">
<path d="M23 3.75C20.5377 3.75 18.0995 4.23498 15.8247 5.17726C13.5498 6.11953 11.4828 7.50065 9.74175 9.24175C6.22544 12.7581 4.25 17.5272 4.25 22.5C4.25 30.7875 9.63125 37.8187 17.075 40.3125C18.0125 40.4625 18.3125 39.8812 18.3125 39.375V36.2062C13.1188 37.3312 12.0125 33.6937 12.0125 33.6937C11.15 31.5187 9.93125 30.9375 9.93125 30.9375C8.225 29.775 10.0625 29.8125 10.0625 29.8125C11.9375 29.9437 12.9313 31.7437 12.9313 31.7437C14.5625 34.5937 17.3187 33.75 18.3875 33.3C18.5562 32.0812 19.0438 31.2562 19.5688 30.7875C15.4063 30.3187 11.0375 28.7062 11.0375 21.5625C11.0375 19.4812 11.75 17.8125 12.9688 16.4812C12.7813 16.0125 12.125 14.0625 13.1562 11.5312C13.1562 11.5312 14.7313 11.025 18.3125 13.4437C19.7938 13.0312 21.4062 12.825 23 12.825C24.5938 12.825 26.2062 13.0312 27.6875 13.4437C31.2687 11.025 32.8438 11.5312 32.8438 11.5312C33.875 14.0625 33.2188 16.0125 33.0313 16.4812C34.25 17.8125 34.9625 19.4812 34.9625 21.5625C34.9625 28.725 30.575 30.3 26.3938 30.7687C27.0688 31.35 27.6875 32.4937 27.6875 34.2375V39.375C27.6875 39.8812 27.9875 40.4812 28.9438 40.3125C36.3875 37.8 41.75 30.7875 41.75 22.5C41.75 20.0377 41.265 17.5995 40.3227 15.3247C39.3805 13.0498 37.9994 10.9828 36.2583 9.24175C34.5172 7.50065 32.4502 6.11953 30.1753 5.17726C27.9005 4.23498 25.4623 3.75 23 3.75Z" fill="black"/>
</svg>
