<svg width="46" height="45" viewBox="0 0 46 45" fill="none" xmlns="http://www.w3.org/2000/svg">
<path d="M23 3.75C12.65 3.75 4.25 12.15 4.25 22.5C4.25 32.85 12.65 41.25 23 41.25C33.35 41.25 41.75 32.85 41.75 22.5C41.75 12.15 33.35 3.75 23 3.75ZM31.7 16.5C31.4187 19.4625 30.2 26.6625 29.5813 29.9812C29.3188 31.3875 28.7937 31.8563 28.3062 31.9125C27.2187 32.0063 26.3938 31.2 25.3438 30.5063C23.6938 29.4188 22.7563 28.7438 21.1625 27.6938C19.3063 26.475 20.5062 25.8 21.575 24.7125C21.8562 24.4313 26.6562 20.0625 26.75 19.6687C26.763 19.6091 26.7613 19.5472 26.745 19.4884C26.7286 19.4296 26.6982 19.3756 26.6562 19.3313C26.5437 19.2375 26.3937 19.275 26.2625 19.2937C26.0937 19.3312 23.4688 21.075 18.35 24.525C17.6 25.0312 16.925 25.2937 16.325 25.275C15.65 25.2562 14.375 24.9 13.4187 24.5812C12.2375 24.2062 11.3187 24 11.3937 23.3437C11.4312 23.0062 11.9 22.6687 12.7813 22.3125C18.2563 19.9312 21.8938 18.3563 23.7125 17.6063C28.925 15.4313 29.9938 15.0562 30.7063 15.0562C30.8563 15.0562 31.2125 15.0937 31.4375 15.2812C31.625 15.4312 31.6812 15.6375 31.7 15.7875C31.6812 15.9 31.7187 16.2375 31.7 16.5Z" fill="black"/>
</svg>
